<svg xmlns="http://www.w3.org/2000/svg" viewBox="0 0 64 64">
  <rect width="64" height="64" rx="14" fill="#0a0a0b"/>
  <g transform="translate(32 32)" fill="none" stroke="#d4ff4d" stroke-width="3.2" stroke-linecap="round" stroke-linejoin="round">
    <path d="M0-22 L4-22 L6-16 A16 16 0 0 1 11.3-13 L17-15 L19-11.5 L15-7 A16 16 0 0 1 15 7 L19 11.5 L17 15 L11.3 13 A16 16 0 0 1 6 16 L4 22 L-4 22 L-6 16 A16 16 0 0 1-11.3 13 L-17 15 L-19 11.5 L-15 7 A16 16 0 0 1-15-7 L-19-11.5 L-17-15 L-11.3-13 A16 16 0 0 1-6-16 L-4-22 Z"/>
    <circle r="6"/>
  </g>
</svg>
